<svg width="5000" height="5000" viewBox="0 0 5000 5000" fill="none" xmlns="http://www.w3.org/2000/svg">
<path d="M3198.51 1689.05V1548.21L2628.29 978.002V1561.95L2951.19 1877.97V1740.57L2724.47 1513.86V1218.45L3198.51 1689.05Z" fill="white"/>
<path d="M3249.98 1802.82H3390.82L3961.03 2373.04H3377.08L3061.06 2050.14H3198.46L3425.17 2276.86H3720.58L3249.98 1802.82Z" fill="white"/>
<path d="M3249.99 3193.55H3390.83L3961.04 2623.33H3377.09L3061.07 2946.23H3198.47L3425.18 2719.51H3720.59L3249.99 3193.55Z" fill="white"/>
<path d="M3198.52 3309.95V3450.79L2628.3 4021V3437.05L2951.19 3121.03V3258.43L2724.48 3485.14V3780.55L3198.52 3309.95Z" fill="white"/>
<path d="M1801.53 1689.05V1548.21L2371.74 978V1561.95L2048.85 1877.97V1740.57L2275.56 1513.86V1218.45L1801.53 1689.05Z" fill="white"/>
<path d="M1750.05 1802.82H1609.22L1039.01 2373.03H1622.96L1938.98 2050.14H1801.58L1574.87 2276.85H1279.46L1750.05 1802.82Z" fill="white"/>
<path d="M1750.05 3193.55H1609.21L1039 2623.33H1622.95L1938.97 2946.22H1801.57L1574.86 2719.51H1279.45L1750.05 3193.55Z" fill="white"/>
<path d="M1801.52 3309.95V3450.79L2371.74 4021V3437.05L2048.84 3121.03V3258.43L2275.56 3485.14V3780.55L1801.52 3309.95Z" fill="white"/>
<path d="M3198.51 1689.05V1548.21L2628.29 978.002V1561.95L2951.19 1877.97V1740.57L2724.47 1513.86V1218.45L3198.51 1689.05Z" stroke="white"/>
<path d="M3249.98 1802.82H3390.82L3961.03 2373.04H3377.08L3061.06 2050.14H3198.46L3425.17 2276.86H3720.58L3249.98 1802.82Z" stroke="white"/>
<path d="M3249.99 3193.55H3390.83L3961.04 2623.33H3377.09L3061.07 2946.23H3198.47L3425.18 2719.51H3720.59L3249.99 3193.55Z" stroke="white"/>
<path d="M3198.52 3309.95V3450.79L2628.3 4021V3437.05L2951.19 3121.03V3258.43L2724.48 3485.14V3780.55L3198.52 3309.95Z" stroke="white"/>
<path d="M1801.53 1689.05V1548.21L2371.74 978V1561.95L2048.85 1877.97V1740.57L2275.56 1513.86V1218.45L1801.53 1689.05Z" stroke="white"/>
<path d="M1750.05 1802.82H1609.22L1039.01 2373.03H1622.96L1938.98 2050.14H1801.58L1574.87 2276.85H1279.46L1750.05 1802.82Z" stroke="white"/>
<path d="M1750.05 3193.55H1609.21L1039 2623.33H1622.95L1938.97 2946.22H1801.57L1574.86 2719.51H1279.45L1750.05 3193.55Z" stroke="white"/>
<path d="M1801.52 3309.95V3450.79L2371.74 4021V3437.05L2048.84 3121.03V3258.43L2275.56 3485.14V3780.55L1801.52 3309.95Z" stroke="white"/>
<path d="M2500.02 1902.39L3095.51 2497.88L2500.02 3093.36L1904.53 2497.88L2500.02 1902.39ZM2500.02 2982.13L2984.27 2497.88L2500.02 2013.63L2015.77 2497.88L2500.02 2982.13Z" fill="white"/>
<path d="M2499.98 2208.62L2789.2 2497.84L2499.98 2787.06L2210.77 2497.84L2499.98 2208.62ZM2499.98 2675.82L2677.96 2497.84L2499.98 2319.86L2322 2497.84L2499.98 2675.82Z" fill="white"/>
<path d="M2429.96 2709.93H2570.49V2983.65H2429.96V2709.93Z" fill="white"/>
<path d="M2570.49 2305.11H2429.96V2007.26H2570.49V2305.11Z" fill="white"/>
<path d="M2284.18 2427.81V2568.35H1990.53V2427.81H2284.18Z" fill="white"/>
<path d="M2992.09 2427.81V2568.35H2686.9V2427.81H2992.09Z" fill="white"/>
</svg>
